<?xml version="1.0" encoding="UTF-8"?>
<svg id="_图层_1" data-name=" 图层 1" xmlns="http://www.w3.org/2000/svg" version="1.1" viewBox="0 0 45 45.7">
  <defs>
    <style>
      .cls-1 {
        fill: #4e6691;
        stroke-width: 0px;
      }

      .cls-2 {
        fill: none;
        stroke: #4e6691;
        stroke-linecap: round;
        stroke-linejoin: round;
        stroke-width: 4px;
      }
    </style>
  </defs>
  <circle class="cls-2" cx="22.5" cy="22.9" r="20"/>
  <path class="cls-1" d="M14,36.3v-4.3h7.2v4.3h-7.2ZM15.1,22.2v-4.3h10.5v4.3h-10.5ZM23,15.4c-.9,0-1.6-.3-2.2-.8s-.8-1.3-.8-2.2.3-1.6.8-2.2,1.3-.8,2.2-.8,1.6.3,2.2.8.8,1.3.8,2.2-.3,1.6-.8,2.2-1.3.8-2.2.8ZM20.8,36.3v-17.4h4.7v17.4h-4.7ZM25.2,36.3v-4.3h5.8v4.3h-5.8Z"/>
</svg>