<?xml version="1.0" encoding="UTF-8"?>
<svg id="_图层_1" data-name=" 图层 1" xmlns="http://www.w3.org/2000/svg" version="1.1" viewBox="0 0 45 45.7">
  <defs>
    <style>
      .cls-1, .cls-2, .cls-3, .cls-4 {
        fill: none;
        stroke-linecap: round;
      }

      .cls-1, .cls-3 {
        stroke: #4e6691;
      }

      .cls-1, .cls-4 {
        stroke-linejoin: round;
        stroke-width: 3px;
      }

      .cls-2, .cls-3 {
        stroke-miterlimit: 10;
        stroke-width: 3.7px;
      }

      .cls-2, .cls-4 {
        stroke: #ba3e45;
      }

      .cls-5 {
        fill: #9fa0a0;
        stroke-width: 0px;
      }
    </style>
  </defs>
  <g>
    <g>
      <line class="cls-1" x1="23.5" y1="33.9" x2="38.3" y2="33.9"/>
      <line class="cls-1" x1="28.2" y1="42" x2="37.6" y2="25.7"/>
      <line class="cls-1" x1="37.6" y1="42" x2="28.2" y2="25.7"/>
    </g>
    <g>
      <line class="cls-4" x1="38.8" y1="33.9" x2="42.3" y2="27.8"/>
      <line class="cls-4" x1="42.3" y1="39.9" x2="38.8" y2="33.9"/>
    </g>
    <circle class="cls-5" cx="38.8" cy="33.9" r="2"/>
  </g>
  <g>
    <path class="cls-3" d="M13.8,39.7c12.7-12.7,1-24.4,13.8-37.2"/>
    <path class="cls-2" d="M2.1,28c12.7-12.7,24.4-1,37.2-13.8"/>
    <line class="cls-3" x1="12" y1="36" x2="6.2" y2="30.2"/>
    <line class="cls-2" x1="15.1" y1="31.6" x2="10.6" y2="26.9"/>
    <line class="cls-3" x1="16.8" y1="25.5" x2="16.5" y2="25.3"/>
    <line class="cls-2" x1="35.7" y1="12.4" x2="29.8" y2="6.4"/>
    <line class="cls-3" x1="31.2" y1="15.5" x2="26.6" y2="10.8"/>
    <line class="cls-2" x1="25.2" y1="17" x2="25" y2="16.8"/>
  </g>
</svg>