<?xml version="1.0" encoding="UTF-8"?>
<svg id="_图层_1" data-name=" 图层 1" xmlns="http://www.w3.org/2000/svg" version="1.1" viewBox="0 0 45 45.7">
  <defs>
    <style>
      .cls-1, .cls-2, .cls-3 {
        stroke-linecap: round;
        stroke-linejoin: round;
      }

      .cls-1, .cls-2, .cls-3, .cls-4, .cls-5 {
        fill: none;
        stroke-width: 3px;
      }

      .cls-1, .cls-4 {
        stroke: #b88184;
      }

      .cls-2 {
        stroke: #4b638b;
      }

      .cls-3, .cls-5 {
        stroke: #8995a8;
      }

      .cls-4, .cls-5 {
        stroke-miterlimit: 10;
      }

      .cls-6 {
        fill: #f0f0f0;
        stroke-width: 0px;
      }
    </style>
  </defs>
  <g>
    <rect class="cls-5" x="3.5" y="5.9" width="38.1" height="38.1" rx="3.7" ry="3.7"/>
    <rect class="cls-6" x="3.5" y="3.8" width="38.1" height="38.1" rx="3.7" ry="3.7"/>
    <rect class="cls-4" x="3.5" y="3.8" width="38.1" height="38.1" rx="3.7" ry="3.7"/>
  </g>
  <g>
    <g>
      <polyline class="cls-3" points="24.3 13.9 9.7 13.9 9.7 29.6 18.8 29.6"/>
      <polyline class="cls-3" points="34.2 9.8 24.3 9.8 24.3 25.5 34.2 25.5"/>
      <polyline class="cls-3" points="34.2 18.6 19 18.6 19 33.7 34.2 33.7"/>
    </g>
    <g>
      <polyline class="cls-1" points="27.1 15 10.3 15 10.3 30.7 22.6 30.7"/>
      <polyline class="cls-1" points="34.8 10.9 27.1 10.9 27.1 19.1 34.8 19.1"/>
      <polyline class="cls-1" points="34.8 26.6 22.6 26.6 22.6 34.8 34.8 34.8"/>
    </g>
    <g>
      <polyline class="cls-2" points="23 16 10.8 16 10.8 31.7 23 31.7"/>
      <polyline class="cls-2" points="35.3 11.9 23 11.9 23 20.1 35.3 20.1"/>
      <polyline class="cls-2" points="35.3 27.6 23 27.6 23 35.8 35.3 35.8"/>
    </g>
  </g>
</svg>