<?xml version="1.0" encoding="UTF-8"?>
<svg id="_图层_1" data-name=" 图层 1" xmlns="http://www.w3.org/2000/svg" version="1.1" viewBox="0 0 45 45.7">
  <defs>
    <style>
      .cls-1 {
        fill: #4e6691;
      }

      .cls-1, .cls-2, .cls-3 {
        stroke-width: 0px;
      }

      .cls-2 {
        fill: #fff;
      }

      .cls-3 {
        fill: #ba3e45;
      }
    </style>
  </defs>
  <rect class="cls-1" x="3.7" y="4" width="33.4" height="33.4" rx="5.8" ry="5.8"/>
  <rect class="cls-2" x="6.6" y="6.9" width="37" height="37" rx="5.8" ry="5.8"/>
  <g>
    <path class="cls-2" d="M14.6,10.7h21.9c2.4,0,4.3,1.9,4.3,4.3v21.9c0,2.4-1.9,4.3-4.3,4.3H14.6c-2.4,0-4.3-1.9-4.3-4.3V15c0-2.4,1.9-4.3,4.3-4.3Z"/>
    <path class="cls-3" d="M36.5,12.2c1.5,0,2.8,1.2,2.8,2.8v21.9c0,1.5-1.2,2.8-2.8,2.8H14.6c-1.5,0-2.8-1.2-2.8-2.8V15c0-1.5,1.2-2.8,2.8-2.8h21.9M36.5,9.2H14.6c-3.2,0-5.8,2.6-5.8,5.8v21.9c0,3.2,2.6,5.8,5.8,5.8h21.9c3.2,0,5.8-2.6,5.8-5.8V15c0-3.2-2.6-5.8-5.8-5.8h0Z"/>
  </g>
</svg>