<?xml version="1.0" encoding="UTF-8"?>
<svg id="_图层_1" data-name=" 图层 1" xmlns="http://www.w3.org/2000/svg" version="1.1" viewBox="0 0 45 45.7">
  <defs>
    <style>
      .cls-1 {
        fill: #a83c41;
      }

      .cls-1, .cls-2, .cls-3 {
        stroke-width: 0px;
      }

      .cls-2 {
        fill: #fff;
      }

      .cls-3 {
        fill: #4b6187;
      }
    </style>
  </defs>
  <g>
    <path class="cls-3" d="M32,2.8h-2.1v10.3h-15.1V2.8H6.6c-2.3,0-4.2,1.9-4.2,4.2v31.8c0,2.3,1.9,4.2,4.2,4.2h31.8c2.3,0,4.2-1.9,4.2-4.2V13L32,2.8ZM36.5,38.4c0,.6-.5,1-1,1H8.9c-.6,0-1-.5-1-1v-15.4c0-.6.5-1,1-1h26.5c.6,0,1,.5,1,1v15.4Z"/>
    <rect class="cls-1" x="23.8" y="2.8" width="4.7" height="8.9"/>
  </g>
  <g>
    <path class="cls-1" d="M29.3,44c-.3,0-.5,0-.8-.2-.5-.3-.8-.8-.8-1.3v-2.4h-10c-.8,0-1.5-.7-1.5-1.5v-6.6c0-.8.7-1.5,1.5-1.5h10v-2.4c0-.5.3-1,.8-1.3.2-.1.5-.2.8-.2s.5,0,.8.2l12.4,7.1c.5.3.8.8.8,1.3s-.3,1-.8,1.3l-12.4,7.1c-.2.1-.5.2-.8.2Z"/>
    <path class="cls-2" d="M29.3,28.2l12.4,7.1-12.4,7.1v-3.9h-11.5v-6.6h11.5v-3.9M29.3,25.2c-.5,0-1,.1-1.5.4-.9.5-1.5,1.5-1.5,2.6v.9h-8.5c-1.7,0-3,1.3-3,3v6.6c0,1.7,1.3,3,3,3h8.5v.9c0,1.1.6,2.1,1.5,2.6.5.3,1,.4,1.5.4s1-.1,1.5-.4l12.4-7.1c.9-.5,1.5-1.5,1.5-2.6s-.6-2.1-1.5-2.6l-12.4-7.1c-.5-.3-1-.4-1.5-.4h0Z"/>
  </g>
</svg>