<?xml version="1.0" encoding="UTF-8"?>
<svg id="_图层_1" data-name=" 图层 1" xmlns="http://www.w3.org/2000/svg" version="1.1" viewBox="0 0 45 45.7">
  <defs>
    <style>
      .cls-1, .cls-2, .cls-3, .cls-4, .cls-5, .cls-6, .cls-7, .cls-8, .cls-9, .cls-10 {
        stroke-width: 0px;
      }

      .cls-1, .cls-2, .cls-7, .cls-10 {
        fill: #4a6086;
      }

      .cls-1, .cls-5 {
        opacity: .9;
      }

      .cls-2, .cls-6 {
        opacity: .8;
      }

      .cls-3, .cls-4, .cls-5, .cls-6 {
        fill: #a83c41;
      }

      .cls-3, .cls-10 {
        opacity: .8;
      }

      .cls-7 {
        opacity: .7;
      }

      .cls-8 {
        fill: #fff;
      }

      .cls-9 {
        fill: #4b6187;
      }
    </style>
  </defs>
  <g>
    <path class="cls-7" d="M24,41.8c-.3.3-.7.5-1.2.5-.9,0-1.7-.7-1.7-1.7,0-8.2-3.7-12.3-7.7-16.6C9.2,19.4,4.8,14.6,4.8,5c0-.9.7-1.7,1.7-1.7s1.7.7,1.7,1.7c0,8.3,3.8,12.4,7.8,16.8,4.2,4.6,8.6,9.4,8.6,18.9,0,.5-.2.9-.5,1.2h0Z"/>
    <path class="cls-4" d="M7.7,41.8c-.3.3-.7.5-1.2.5-.9,0-1.7-.7-1.7-1.7,0-9.5,4.4-14.3,8.6-18.9,4-4.3,7.8-8.4,7.8-16.8,0-.9.7-1.7,1.7-1.7.9,0,1.7.7,1.7,1.7,0,9.6-4.4,14.4-8.6,19-4,4.3-7.7,8.4-7.7,16.6,0,.5-.2.9-.5,1.2h0Z"/>
    <path class="cls-2" d="M20.2,40.6c-.3.3-.7.5-1.2.5h-8.2c-.9,0-1.7-.7-1.7-1.7s.7-1.7,1.7-1.7h8.2c.9,0,1.7.7,1.7,1.7s-.2.9-.5,1.2Z"/>
    <path class="cls-3" d="M19.2,35.3c-.3.3-.7.5-1.2.5h-6.4c-.9,0-1.7-.8-1.7-1.7,0-.9.8-1.7,1.7-1.7h6.4c.9,0,1.7.8,1.7,1.7,0,.5-.2.9-.5,1.2Z"/>
    <path class="cls-1" d="M16.2,29.9c-.2.2-.5.4-.9.5h-.3c-.9.2-1.8-.3-2-1.2-.2-.9.4-1.8,1.3-2h.3c.9-.2,1.8.3,2,1.2.1.6,0,1.1-.5,1.5h0Z"/>
    <path class="cls-6" d="M20.2,7.5c-.3.3-.7.5-1.2.5h-8.2c-.9,0-1.7-.8-1.7-1.7,0-.9.8-1.7,1.7-1.7h8.2c.9,0,1.7.8,1.7,1.7,0,.5-.2.9-.5,1.2h0Z"/>
    <path class="cls-10" d="M19.2,12.8c-.3.3-.7.5-1.2.5h-6.4c-.9,0-1.7-.8-1.7-1.7,0-.9.8-1.7,1.7-1.7h6.4c.9,0,1.7.8,1.7,1.7,0,.5-.2.9-.5,1.2Z"/>
    <path class="cls-5" d="M16.1,18.1c-.3.3-.7.5-1.2.5h-.3c-.9,0-1.7-.7-1.7-1.7,0-.9.7-1.7,1.7-1.7h.3c.9,0,1.7.7,1.7,1.7,0,.5-.2.9-.5,1.2Z"/>
  </g>
  <g>
    <path class="cls-9" d="M30.2,40.1c-.2,0-.3,0-.5-.1-.3-.2-.5-.5-.5-.9v-2.9h-10.5c-.6,0-1-.4-1-1v-6.6c0-.6.4-1,1-1h10.5v-2.9c0-.4.2-.7.5-.9.2,0,.3-.1.5-.1s.3,0,.5.1l12.4,7.1c.3.2.5.5.5.9s-.2.7-.5.9l-12.4,7.1c-.2,0-.3.1-.5.1Z"/>
    <path class="cls-8" d="M30.2,24.9l12.4,7.1-12.4,7.1v-3.9h-11.5v-6.6h11.5v-3.9M30.2,22.8c-.3,0-.7,0-1,.3-.6.4-1,1-1,1.7v1.9h-9.5c-1.1,0-2,.9-2,2v6.6c0,1.1.9,2,2,2h9.5v1.9c0,.7.4,1.4,1,1.7.3.2.7.3,1,.3s.7,0,1-.3l12.4-7.1c.6-.4,1-1,1-1.7s-.4-1.4-1-1.7l-12.4-7.1c-.3-.2-.7-.3-1-.3h0Z"/>
  </g>
</svg>