<?xml version="1.0" encoding="UTF-8"?>
<svg id="_图层_1" data-name=" 图层 1" xmlns="http://www.w3.org/2000/svg" version="1.1" viewBox="0 0 45 45.7">
  <defs>
    <style>
      .cls-1 {
        fill: none;
        stroke: #4e6691;
        stroke-linecap: round;
        stroke-linejoin: round;
        stroke-width: 3px;
      }

      .cls-2 {
        fill: #ba3e45;
        stroke-width: 0px;
      }
    </style>
  </defs>
  <polyline class="cls-1" points="15.6 3.3 11.3 8.5 6.3 4.4"/>
  <polyline class="cls-1" points="3.3 8.1 11.3 8.5 19.2 7"/>
  <polyline class="cls-1" points="11.3 8.5 11.8 14.8 20.6 12.4 24.9 10.9"/>
  <polyline class="cls-1" points="23.3 8.5 20.6 12.4 25.3 14.1"/>
  <polyline class="cls-1" points="4.7 14.1 11.8 14.8 18.1 17.9"/>
  <polyline class="cls-1" points="8.2 21.4 8.2 24.4 6.3 27.3"/>
  <polyline class="cls-1" points="3.3 25 8.2 24.4 13.5 21.1 11.8 14.8 3 21.1"/>
  <polyline class="cls-1" points="26 17.9 23.2 20.9 27.4 23.5"/>
  <path class="cls-1" d="M23.2,20.9l-9.8.2-.3,10-3.4-1"/>
  <polyline class="cls-1" points="8.2 40.2 13.2 31.1 27.4 29.7"/>
  <polyline class="cls-1" points="25.8 27.3 22.5 30.2 27.8 34.1 31.3 39.6 30.7 42.8"/>
  <polyline class="cls-1" points="34.8 43.7 31.3 39.6 36.4 39.6 38.9 40.8"/>
  <polyline class="cls-1" points="34.7 30.7 27.8 34.1 35.6 35"/>
  <path class="cls-2" d="M33.5,2.6l7.8,33c0,.4-.1.7-.5.8l-.7.2c-.4,0-.7-.1-.8-.5l-2.3-9.8c0-.4-.4-.6-.8-.5l-1.3.3c-.4,0-.7-.1-.8-.5-2.3-10.2-3.1-19.8-1.9-23.1s1.1-.6,1.3,0Z"/>
</svg>