<?xml version="1.0" encoding="UTF-8"?>
<svg id="_图层_1" data-name=" 图层 1" xmlns="http://www.w3.org/2000/svg" version="1.1" viewBox="0 0 45 45.7">
  <defs>
    <style>
      .cls-1 {
        fill: none;
        stroke: #d59193;
        stroke-linecap: round;
        stroke-miterlimit: 10;
        stroke-width: 5px;
      }

      .cls-2 {
        fill: #4c638c;
      }

      .cls-2, .cls-3 {
        stroke-width: 0px;
      }

      .cls-3 {
        fill: #fff;
      }
    </style>
  </defs>
  <g>
    <line class="cls-1" x1="6.8" y1="34.7" x2="38.2" y2="34.7"/>
    <line class="cls-1" x1="6.8" y1="26.8" x2="38.2" y2="26.8"/>
    <line class="cls-1" x1="6.8" y1="18.9" x2="38.2" y2="18.9"/>
    <line class="cls-1" x1="6.8" y1="11" x2="38.2" y2="11"/>
  </g>
  <g>
    <polygon class="cls-2" points="9.7 41.5 9.7 35.9 4.1 35.9 4.1 28.9 9.7 28.9 9.7 23.3 16.7 23.3 16.7 28.9 22.4 28.9 22.4 35.9 16.7 35.9 16.7 41.5 9.7 41.5"/>
    <path class="cls-3" d="M15.7,24.3v5.6h5.6v5h-5.6v5.6h-5v-5.6h-5.6v-5h5.6v-5.6h5M17.7,22.3h-9v5.6H3.1v9h5.6v5.6h9v-5.6h5.6v-9h-5.6v-5.6h0Z"/>
  </g>
</svg>