<?xml version="1.0" encoding="UTF-8"?>
<svg id="_图层_1" data-name=" 图层 1" xmlns="http://www.w3.org/2000/svg" version="1.1" viewBox="0 0 45 45.7">
  <defs>
    <style>
      .cls-1 {
        fill: #b88184;
      }

      .cls-1, .cls-2 {
        stroke: #8995a8;
        stroke-miterlimit: 10;
        stroke-width: 2px;
      }

      .cls-3 {
        fill: #4e6691;
        stroke-width: 0px;
      }

      .cls-2 {
        fill: #f0f0f0;
      }
    </style>
  </defs>
  <g>
    <path class="cls-1" d="M13.3,1.9c-.2,0-.9,0-.9,1.1v6.2c0,.8-.6,1.4-1.4,1.4h-5.5c-.9,0-.9.6-.9.9v-1.2c0-.4.2-.9.4-1.2l5.9-6.6c.3-.4.9-.6,1.4-.6h1Z"/>
    <path class="cls-2" d="M32.8,3.8v31.5c0,1.1-.9,2-2,2H6.5c-1.1,0-2-.9-2-2V11.5c0-.3,0-.9.9-.9h5.5c.8,0,1.4-.6,1.4-1.4V3c0-1.1.7-1.1.9-1.1h17.7c1.1,0,2,.9,2,2h0Z"/>
  </g>
  <g>
    <circle class="cls-3" cx="9.3" cy="14.3" r=".9"/>
    <circle class="cls-3" cx="9.3" cy="17.9" r=".9"/>
    <circle class="cls-3" cx="9.3" cy="21.4" r=".9"/>
    <circle class="cls-3" cx="9.3" cy="25" r=".9"/>
    <rect class="cls-3" x="12.1" y="13.4" width="17.1" height="1.8"/>
    <rect class="cls-3" x="12.1" y="16.9" width="17.1" height="1.8"/>
    <rect class="cls-3" x="12.1" y="20.7" width="17.1" height="1.8"/>
    <rect class="cls-3" x="12.1" y="24" width="17.1" height="1.8"/>
  </g>
  <g>
    <path class="cls-1" d="M16.4,5c-.2,0-.9,0-.9,1.1v6.2c0,.8-.6,1.4-1.4,1.4h-5.5c-.9,0-.9.6-.9.9v-1.2c0-.4.2-.9.4-1.2l5.9-6.6c.3-.4.9-.6,1.4-.6h1Z"/>
    <path class="cls-2" d="M36,7v31.5c0,1.1-.9,2-2,2H9.7c-1.1,0-2-.9-2-2V14.6c0-.3,0-.9.9-.9h5.5c.8,0,1.4-.6,1.4-1.4v-6.2c0-1.1.7-1.1.9-1.1h17.7c1.1,0,2,.9,2,2h0Z"/>
  </g>
  <g>
    <circle class="cls-3" cx="12.4" cy="17.4" r=".9"/>
    <circle class="cls-3" cx="12.4" cy="21" r=".9"/>
    <circle class="cls-3" cx="12.4" cy="24.5" r=".9"/>
    <circle class="cls-3" cx="12.4" cy="28.1" r=".9"/>
    <rect class="cls-3" x="15.2" y="16.6" width="17.1" height="1.8"/>
    <rect class="cls-3" x="15.2" y="20.1" width="17.1" height="1.8"/>
    <rect class="cls-3" x="15.2" y="23.8" width="17.1" height="1.8"/>
    <rect class="cls-3" x="15.2" y="27.2" width="17.1" height="1.8"/>
  </g>
  <g>
    <path class="cls-1" d="M19.9,8.5c-.2,0-.9,0-.9,1.1v6.2c0,.8-.6,1.4-1.4,1.4h-5.5c-.9,0-.9.6-.9.9v-1.2c0-.4.2-.9.4-1.2l5.9-6.6c.3-.4.9-.6,1.4-.6h1Z"/>
    <path class="cls-2" d="M39.4,10.4v31.5c0,1.1-.9,2-2,2H13.1c-1.1,0-2-.9-2-2v-23.9c0-.3,0-.9.9-.9h5.5c.8,0,1.4-.6,1.4-1.4v-6.2c0-1.1.7-1.1.9-1.1h17.7c1.1,0,2,.9,2,2h0Z"/>
  </g>
  <g>
    <circle class="cls-3" cx="15.8" cy="20.9" r=".9"/>
    <circle class="cls-3" cx="15.8" cy="24.4" r=".9"/>
    <circle class="cls-3" cx="15.8" cy="27.9" r=".9"/>
    <circle class="cls-3" cx="15.8" cy="31.5" r=".9"/>
    <rect class="cls-3" x="18.7" y="20" width="17.1" height="1.8"/>
    <rect class="cls-3" x="18.7" y="23.5" width="17.1" height="1.8"/>
    <rect class="cls-3" x="18.7" y="27.3" width="17.1" height="1.8"/>
    <rect class="cls-3" x="18.7" y="30.6" width="17.1" height="1.8"/>
  </g>
</svg>