<?xml version="1.0" encoding="UTF-8"?>
<svg id="_图层_1" data-name=" 图层 1" xmlns="http://www.w3.org/2000/svg" version="1.1" viewBox="0 0 45 45.7">
  <defs>
    <style>
      .cls-1 {
        fill: #b88184;
      }

      .cls-1, .cls-2, .cls-3 {
        stroke-width: 2px;
      }

      .cls-1, .cls-3 {
        stroke: #8995a8;
        stroke-miterlimit: 10;
      }

      .cls-2 {
        fill: none;
        stroke: #4e6691;
        stroke-linecap: round;
        stroke-linejoin: round;
      }

      .cls-3 {
        fill: #f0f0f0;
      }
    </style>
  </defs>
  <g>
    <path class="cls-1" d="M16.1,2.1c-.2,0-1.1,0-1.1,1.3v7.3c0,.9-.7,1.6-1.6,1.6h-6.4c-1,0-1.1.7-1.1,1v-1.4c0-.5.2-1,.5-1.4l6.9-7.7c.4-.5,1-.7,1.6-.7h1.2Z"/>
    <path class="cls-3" d="M39,4.4v36.9c0,1.3-1,2.3-2.3,2.3H8.2c-1.3,0-2.3-1-2.3-2.3V13.3c0-.3,0-1,1.1-1h6.4c.9,0,1.6-.7,1.6-1.6V3.4c0-1.3.8-1.3,1.1-1.3h20.7c1.3,0,2.3,1,2.3,2.3h-.1Z"/>
  </g>
  <rect class="cls-2" x="14.7" y="15.1" width="15.5" height="15.5"/>
  <line class="cls-2" x1="14.7" y1="15.1" x2="30.3" y2="30.6"/>
  <line class="cls-2" x1="30.3" y1="15.1" x2="14.7" y2="30.6"/>
</svg>