<?xml version="1.0" encoding="UTF-8"?>
<svg id="_图层_1" data-name=" 图层 1" xmlns="http://www.w3.org/2000/svg" version="1.1" viewBox="0 0 45 45.7">
  <defs>
    <style>
      .cls-1 {
        fill: #b88184;
      }

      .cls-1, .cls-2, .cls-3 {
        stroke-width: 2px;
      }

      .cls-1, .cls-3 {
        stroke: #8995a8;
        stroke-miterlimit: 10;
      }

      .cls-2 {
        fill: none;
        stroke: #4e6691;
        stroke-linecap: round;
        stroke-linejoin: round;
      }

      .cls-3 {
        fill: #f0f0f0;
      }
    </style>
  </defs>
  <g>
    <path class="cls-1" d="M16.1,2.1c-.2,0-1.1,0-1.1,1.3v7.3c0,.9-.7,1.6-1.6,1.6h-6.4c-1,0-1.1.7-1.1,1v-1.4c0-.5.2-1,.5-1.4l6.9-7.7c.4-.5,1-.7,1.6-.7h1.2Z"/>
    <path class="cls-3" d="M39,4.4v36.9c0,1.3-1,2.3-2.3,2.3H8.2c-1.3,0-2.3-1-2.3-2.3V13.3c0-.3,0-1,1.1-1h6.4c.9,0,1.6-.7,1.6-1.6V3.4c0-1.3.8-1.3,1.1-1.3h20.7c1.3,0,2.3,1,2.3,2.3h-.1Z"/>
  </g>
  <g>
    <polyline class="cls-2" points="22.4 17.4 12.9 17.4 12.9 28.3 22.4 28.3"/>
    <polyline class="cls-2" points="31.8 14.5 22.4 14.5 22.4 20.2 31.8 20.2"/>
    <polyline class="cls-2" points="31.8 25.5 22.4 25.5 22.4 31.2 31.8 31.2"/>
  </g>
</svg>