<?xml version="1.0" encoding="UTF-8"?>
<svg id="_图层_1" data-name=" 图层 1" xmlns="http://www.w3.org/2000/svg" version="1.1" viewBox="0 0 45 45.7">
  <defs>
    <style>
      .cls-1 {
        fill: #b88184;
      }

      .cls-1, .cls-2 {
        stroke: #8995a8;
        stroke-miterlimit: 10;
        stroke-width: 2px;
      }

      .cls-3 {
        fill: #4e6691;
        stroke-width: 0px;
      }

      .cls-2 {
        fill: #f0f0f0;
      }
    </style>
  </defs>
  <g>
    <path class="cls-1" d="M16.1,2.1c-.2,0-1.1,0-1.1,1.3v7.3c0,.9-.7,1.6-1.6,1.6h-6.4c-1,0-1.1.7-1.1,1v-1.4c0-.5.2-1,.5-1.4l6.9-7.7c.4-.5,1-.7,1.6-.7h1.1Z"/>
    <path class="cls-2" d="M39,4.4v36.9c0,1.3-1,2.3-2.3,2.3H8.2c-1.3,0-2.3-1-2.3-2.3V13.3c0-.3.1-1,1.1-1h6.4c.9,0,1.6-.7,1.6-1.6V3.4c0-1.3.8-1.3,1.1-1.3h20.7c1.3,0,2.3,1,2.3,2.3Z"/>
  </g>
  <g>
    <circle class="cls-3" cx="11.4" cy="16.6" r="1"/>
    <circle class="cls-3" cx="11.4" cy="20.8" r="1"/>
    <circle class="cls-3" cx="11.4" cy="24.9" r="1"/>
    <circle class="cls-3" cx="11.4" cy="29.1" r="1"/>
    <rect class="cls-3" x="14.7" y="15.6" width="20" height="2.1"/>
    <rect class="cls-3" x="14.7" y="19.7" width="20" height="2.1"/>
    <rect class="cls-3" x="14.7" y="24.1" width="20" height="2.1"/>
    <rect class="cls-3" x="14.7" y="28" width="20" height="2.1"/>
  </g>
</svg>