<?xml version="1.0" encoding="UTF-8"?>
<svg id="_图层_1" data-name=" 图层 1" xmlns="http://www.w3.org/2000/svg" version="1.1" viewBox="0 0 45 45.7">
  <defs>
    <style>
      .cls-1 {
        fill: #8995a8;
      }

      .cls-1, .cls-2 {
        stroke-width: 0px;
      }

      .cls-2 {
        fill: #4c638c;
      }
    </style>
  </defs>
  <path class="cls-2" d="M39.7,37.6v5.2h-14.5v-3.8s8.8-2.9,8.8-16.5S25.4,6.5,23.3,6.2s-5.4-.4-8.7.5-5.9,2.4-7.6,4c0,0,6.2-7.9,15.2-7.9s19.3,7.7,19.3,19.3-7.9,15.5-7.9,15.5h6.1"/>
  <path class="cls-1" d="M5.3,37.6v5.2h14.5v-3.8s-8.8-2.9-8.8-16.5S19.6,6.5,21.7,6.2s5.4-.4,8.7.5,5.9,2.4,7.6,4c0,0-5-7.9-15.2-7.9S3.5,10.6,3.5,22.1s7.9,15.5,7.9,15.5h-6.1"/>
</svg>