<?xml version="1.0" encoding="UTF-8"?>
<svg id="_图层_1" data-name=" 图层 1" xmlns="http://www.w3.org/2000/svg" version="1.1" viewBox="0 0 45 45.7">
  <defs>
    <style>
      .cls-1 {
        stroke: #ba3e45;
      }

      .cls-1, .cls-2, .cls-3, .cls-4, .cls-5, .cls-6, .cls-7, .cls-8 {
        fill: #4e6691;
      }

      .cls-1, .cls-9, .cls-10, .cls-11, .cls-12, .cls-13, .cls-14 {
        stroke-miterlimit: 10;
      }

      .cls-2, .cls-3, .cls-4, .cls-5, .cls-6, .cls-7, .cls-8 {
        stroke-width: 0px;
      }

      .cls-2, .cls-12 {
        opacity: .8;
      }

      .cls-9, .cls-10, .cls-11, .cls-12, .cls-13, .cls-14 {
        fill: none;
        stroke: #4e6691;
        stroke-linecap: round;
      }

      .cls-10 {
        opacity: .6;
      }

      .cls-11, .cls-6 {
        opacity: .9;
      }

      .cls-4 {
        opacity: .85;
      }

      .cls-5, .cls-14 {
        opacity: .7;
      }

      .cls-7 {
        opacity: .75;
      }

      .cls-15 {
        display: none;
      }

      .cls-13 {
        opacity: .4;
      }

      .cls-8 {
        opacity: .95;
      }
    </style>
  </defs>
  <path class="cls-8" d="M10.835,34.5l-4.243,4.243c-2.76-2.746-4.801-6.21-5.829-10.072l5.799-1.556c.763,2.848,2.261,5.374,4.272,7.385Z"/>
  <path class="cls-3" d="M18.235,38.773l-1.556,5.814c-3.876-1.028-7.341-3.083-10.086-5.829v-.015l4.243-4.243c2.011,2.011,4.566,3.524,7.4,4.272Z"/>
  <path class="cls-8" d="M28.321,44.587c-1.865.499-3.817.763-5.829.763s-3.964-.264-5.814-.763l1.556-5.814c1.365.367,2.79.558,4.258.558,1.483,0,2.907-.191,4.272-.558l1.556,5.814Z"/>
  <path class="cls-6" d="M38.408,38.758c-2.746,2.746-6.21,4.786-10.086,5.829l-1.556-5.814c2.848-.763,5.374-2.261,7.385-4.272l4.258,4.258Z"/>
  <path class="cls-4" d="M44.237,28.671c-1.042,3.876-3.083,7.341-5.829,10.086l-4.258-4.258c2.011-2.011,3.509-4.537,4.272-7.385l5.814,1.556Z"/>
  <path class="cls-2" d="M45,22.843c0,2.011-.264,3.964-.763,5.829l-5.814-1.556c.367-1.365.558-2.79.558-4.272,0-1.468-.191-2.892-.558-4.258l5.814-1.556c.499,1.85.763,3.803.763,5.814Z"/>
  <path class="cls-7" d="M44.237,17.029l-5.814,1.556c-.749-2.834-2.261-5.388-4.272-7.4l4.243-4.243h.015c2.746,2.746,4.801,6.21,5.829,10.086Z"/>
  <path class="cls-5" d="M38.393,6.942l-4.243,4.243c-2.011-2.011-4.537-3.509-7.385-4.272l1.556-5.799c3.861,1.028,7.326,3.069,10.072,5.829Z"/>
  <path class="cls-2" d="M18.235,6.913c-2.834.749-5.388,2.261-7.4,4.272l-4.243-4.243c2.746-2.76,6.21-4.801,10.086-5.829l1.556,5.799Z"/>
  <path class="cls-4" d="M10.835,11.185c-2.011,2.012-3.524,4.566-4.272,7.4l-5.799-1.556c1.028-3.876,3.069-7.341,5.829-10.086l4.243,4.243Z"/>
  <path class="cls-7" d="M28.321,1.113l-1.556,5.799c-1.365-.367-2.79-.558-4.272-.558-1.468,0-2.892.191-4.258.558l-1.556-5.799c1.85-.499,3.803-.763,5.814-.763s3.964.264,5.829.763Z"/>
  <path class="cls-6" d="M6.005,22.843c0,1.483.191,2.907.558,4.272l-5.799,1.556C.264,26.807,0,24.854,0,22.843s.264-3.964.763-5.814l5.799,1.556c-.367,1.365-.558,2.79-.558,4.258Z"/>
  <rect class="cls-3" x="28.173" y="34.14" width="15.589" height="7.437" rx="2.533" ry="2.533" transform="translate(44.745 -13.618) rotate(53.21)"/>
  <g class="cls-15">
    <line class="cls-1" x1="13.084" y1="6.537" x2="31.916" y2="39.163"/>
    <line class="cls-1" x1="13.084" y1="6.537" x2="31.916" y2="39.163"/>
    <line class="cls-1" x1="13.084" y1="6.537" x2="31.916" y2="39.163"/>
    <line class="cls-1" x1="13.084" y1="6.537" x2="31.916" y2="39.163"/>
    <line class="cls-1" x1="13.084" y1="6.537" x2="31.916" y2="39.163"/>
    <line class="cls-1" x1="13.084" y1="6.537" x2="31.916" y2="39.163"/>
    <line class="cls-1" x1="13.084" y1="6.537" x2="31.916" y2="39.163"/>
    <line class="cls-1" x1="13.084" y1="6.537" x2="31.916" y2="39.163"/>
    <line class="cls-1" x1="22.697" y1="4.016" x2="22.502" y2="41.685"/>
    <line class="cls-1" x1="6.192" y1="13.435" x2="38.978" y2="32.9"/>
    <line class="cls-1" x1="3.664" y1="22.852" x2="41.336" y2="22.848"/>
    <line class="cls-1" x1="13.081" y1="39.146" x2="31.904" y2="6.545"/>
    <line class="cls-1" x1="6.187" y1="32.266" x2="38.813" y2="13.434"/>
  </g>
  <line class="cls-13" x1="22.735" y1="6.438" x2="22.677" y2="11.601"/>
  <line class="cls-12" x1="15.303" y1="17.072" x2="17.705" y2="18.971"/>
  <line class="cls-12" x1="18.934" y1="31.171" x2="20.974" y2="26.547"/>
  <line class="cls-12" x1="31.196" y1="26.111" x2="26.441" y2="24.196"/>
  <line class="cls-9" x1="19.84" y1="25.462" x2="22.616" y2="22.706"/>
  <line class="cls-9" x1="21.521" y1="16.665" x2="21.932" y2="18.936"/>
  <line class="cls-12" x1="27.837" y1="15.108" x2="26.1" y2="17.628"/>
  <line class="cls-10" x1="25.467" y1="12.018" x2="25.007" y2="13.714"/>
  <line class="cls-13" x1="36.778" y1="14.549" x2="30.827" y2="18.027"/>
  <line class="cls-13" x1="30.713" y1="8.572" x2="28.211" y2="12.941"/>
  <path class="cls-13" d="M22.735,11.601c1.974,0,3.829.508,5.441,1.401"/>
  <path class="cls-14" d="M25.008,13.712c2.455.624,4.525,2.211,5.786,4.335"/>
  <g>
    <line class="cls-13" x1="6.276" y1="22.867" x2="11.439" y2="22.929"/>
    <line class="cls-10" x1="11.858" y1="20.139" x2="13.554" y2="20.6"/>
    <line class="cls-13" x1="14.399" y1="8.83" x2="17.872" y2="14.784"/>
    <line class="cls-13" x1="8.417" y1="14.89" x2="12.783" y2="17.396"/>
    <path class="cls-13" d="M11.44,22.871c.002-1.974.511-3.828,1.405-5.44"/>
    <path class="cls-14" d="M13.552,20.6c.626-2.454,2.215-4.523,4.34-5.782"/>
  </g>
  <g>
    <line class="cls-13" x1="8.59" y1="30.895" x2="13.054" y2="28.298"/>
    <line class="cls-10" x1="14.792" y1="30.52" x2="16.041" y2="29.284"/>
    <line class="cls-13" x1="22.571" y1="39.112" x2="22.663" y2="32.22"/>
    <line class="cls-13" x1="14.381" y1="36.783" x2="16.948" y2="32.452"/>
    <path class="cls-13" d="M13.083,28.348c.973,1.717,2.33,3.08,3.902,4.043"/>
    <path class="cls-14" d="M16.039,29.285c1.753,1.828,4.155,2.847,6.624,2.896"/>
  </g>
  <g>
    <line class="cls-13" x1="30.693" y1="36.833" x2="28.109" y2="32.362"/>
    <line class="cls-10" x1="30.336" y1="30.631" x2="29.103" y2="29.378"/>
    <line class="cls-13" x1="38.95" y1="22.876" x2="32.058" y2="22.764"/>
    <line class="cls-13" x1="36.598" y1="31.06" x2="32.274" y2="28.48"/>
    <path class="cls-13" d="M28.159,32.334c1.72-.968,3.087-2.321,4.054-3.89"/>
    <path class="cls-14" d="M29.104,29.38c1.833-1.748,2.859-4.147,2.915-6.616"/>
  </g>
  <path class="cls-11" d="M17.682,18.954c1.143-1.472,2.93-2.419,4.937-2.419,1.294,0,2.496.393,3.493,1.067"/>
  <path class="cls-9" d="M20.974,26.546c-1.376-.638-2.331-2.032-2.331-3.648,0-1.971,1.419-3.611,3.29-3.953"/>
  <path class="cls-9" d="M26.456,24.23c-.55,1.565-2.04,2.687-3.793,2.687-.603,0-1.175-.133-1.689-.371"/>
</svg>