<?xml version="1.0" encoding="UTF-8"?>
<svg id="_图层_1" data-name=" 图层 1" xmlns="http://www.w3.org/2000/svg" version="1.1" viewBox="0 0 45 45.7">
  <defs>
    <style>
      .cls-1 {
        fill: #4e6691;
      }

      .cls-1, .cls-2, .cls-3, .cls-4 {
        stroke-width: 0px;
      }

      .cls-2 {
        fill: #8b8b8b;
      }

      .cls-3 {
        fill: #fff;
      }

      .cls-4 {
        fill: #ba3e45;
      }
    </style>
  </defs>
  <rect class="cls-4" x="4.1" y="0" width="12.3" height="15.2"/>
  <rect class="cls-4" x="16.4" y="0" width="12.3" height="15.2"/>
  <rect class="cls-4" x="28.6" y="0" width="12.3" height="15.2"/>
  <rect class="cls-2" x="4.1" y="30.5" width="12.3" height="15.2"/>
  <rect class="cls-2" x="16.4" y="30.5" width="12.3" height="15.2"/>
  <rect class="cls-2" x="28.6" y="30.5" width="12.3" height="15.2"/>
  <rect class="cls-1" x="4.1" y="15.2" width="12.3" height="15.2"/>
  <rect class="cls-1" x="16.4" y="15.2" width="12.3" height="15.2"/>
  <rect class="cls-4" x="28.6" y="15.2" width="12.3" height="15.2"/>
  <path class="cls-3" d="M5.5,2.7V.2h10.8v2.5H5.5ZM9.6,14.5V.2h2.7v14.3h-2.7Z"/>
  <path class="cls-3" d="M24.5,14.7c-4.6,0-6.8-2.5-6.8-7.4s.6-4.1,1.7-5.4S22.2,0,24.3,0s1.8.2,2.5.5,1.3.7,1.7,1.3l-1.5,1.9c-.3-.4-.7-.7-1.2-.9s-1-.3-1.5-.3c-1.2,0-2.1.4-2.8,1.2s-1,2-1,3.5c0,3.3,1.5,4.9,4.4,4.9s1.9-.2,2.9-.6l.5,2.5c-1.2.5-2.4.7-3.7.7Z"/>
  <path class="cls-3" d="M29.7,2.7V.2h10.8v2.5h-10.8ZM33.8,14.5V.2h2.7v14.3h-2.7Z"/>
  <path class="cls-3" d="M5.2,30.3l4.1-14.3h3.3l4.1,14.3h-2.9l-2.8-10.8h-.2l-2.8,10.8h-2.9ZM7.3,27.6v-2.5h7.3v2.5h-7.3Z"/>
  <path class="cls-3" d="M24.1,30.5c-2.2,0-3.8-.6-4.9-1.8s-1.6-3.1-1.6-5.5.6-4.1,1.7-5.4,2.7-1.9,4.8-1.9,1.9.2,2.7.5,1.3.8,1.8,1.4l-1.7,1.9c-.3-.4-.7-.7-1.2-.9s-1-.3-1.5-.3c-1.2,0-2.1.4-2.8,1.2s-1,2-1,3.5.3,2.9,1,3.7,1.7,1.2,3,1.2,1.2,0,1.7-.2.9-.2,1.2-.3l1,2.4c-.3,0-.8.2-1.6.4-.7.2-1.6.2-2.5.2ZM23.2,25.3v-2.5h5v2.5h-5ZM25.5,29.9v-7h2.6v7h-2.6Z"/>
  <path class="cls-3" d="M36.6,30.5c-4.6,0-6.8-2.5-6.8-7.4s.6-4.1,1.7-5.4,2.8-1.9,4.9-1.9,1.8.2,2.5.5,1.3.7,1.7,1.3l-1.5,1.9c-.3-.4-.7-.7-1.2-.9s-1-.3-1.5-.3c-1.2,0-2.1.4-2.8,1.2-.7.8-1,2-1,3.5,0,3.3,1.5,4.9,4.4,4.9s1.9-.2,2.9-.6l.5,2.5c-1.2.5-2.4.7-3.7.7Z"/>
  <path class="cls-3" d="M10.5,45.2c-.8,0-1.6,0-2.4-.2-.8-.1-1.5-.3-2.1-.6l.4-2.7c.7.3,1.5.5,2.2.7s1.4.3,2,.3,1.3-.1,1.7-.4.6-.6.6-1.1-.4-1.1-1.2-1.5l-2.1-1c-1-.5-1.8-1.1-2.4-1.8s-.8-1.5-.8-2.4.4-2.2,1.2-2.9,2-1,3.5-1,1.7.2,2.5.5,1.5.8,2.1,1.3l-1.8,2.1c-.5-.4-.9-.8-1.4-1-.5-.2-.9-.4-1.4-.4s-1.1.1-1.4.4c-.3.3-.5.6-.5,1.1s.1.6.3.9.6.5,1,.8l1.9,1c1,.5,1.8,1.1,2.3,1.8s.8,1.4.8,2.2c0,1.3-.5,2.3-1.4,2.9s-2.2,1-3.9,1Z"/>
  <path class="cls-3" d="M24,45.2c-1.8,0-3.3-.5-4.3-1.4-1-1-1.5-2.3-1.5-4.1s.4-3.1,1.3-4.1,2.1-1.5,3.6-1.5,2.7.4,3.5,1.3,1.3,2.2,1.3,3.9,0,.9,0,1.4h-7.8v-1.9h5.2c0-.7-.2-1.3-.6-1.7s-.9-.6-1.5-.6-1.3.3-1.7.8-.6,1.2-.6,2.2.3,1.8.9,2.3,1.4.8,2.5.8,1,0,1.4,0c.5,0,1-.1,1.4-.2l.3,2.6c-.7.1-1.3.2-1.9.2s-1.1,0-1.5,0Z"/>
  <path class="cls-3" d="M29.7,45v-2.3h7.5v2.3h-7.5ZM30.1,36.6v-2.3h4l.2,2.3h-4.2ZM32,45v-10.7h2.3l.4,3.1v7.6h-2.7ZM34.7,40.4l-.6-3.7h.9c.1-1.7,1-2.6,2.7-2.6s1.8.4,2.3,1.1.8,1.8.8,3.2h-2.7c0-.6-.1-1.1-.3-1.4s-.6-.4-1.1-.4-1.2.3-1.5,1-.5,1.6-.5,2.8Z"/>
</svg>