<?xml version="1.0" encoding="UTF-8"?>
<svg id="_图层_1" data-name=" 图层 1" xmlns="http://www.w3.org/2000/svg" version="1.1" viewBox="0 0 45 45.7">
  <defs>
    <style>
      .cls-1 {
        fill: #4e6691;
      }

      .cls-1, .cls-2 {
        stroke-width: 0px;
      }

      .cls-2 {
        fill: #ba3e45;
      }
    </style>
  </defs>
  <path class="cls-2" d="M1.8,25.8L6,2.1h4.3l-4.2,23.7H1.8ZM10,17.5l.2-11.2h-1.1l.7-4.2h2.5l-.2,10.8h.1l-.6,4.6h-1.6ZM10.6,17.5l1.5-4.6h.2l3.7-10.8h2.6l-.7,4.2h-1.1l-4,11.2h-2.2ZM13.9,25.8L18.1,2.1h4.2l-4.2,23.7h-4.2Z"/>
  <path class="cls-1" d="M26.1,43.2c-9.6,0-17.5-7.8-17.5-17.5s7.8-17.5,17.5-17.5,17.5,7.8,17.5,17.5-7.8,17.5-17.5,17.5ZM26.1,12.3c-7.4,0-13.5,6-13.5,13.5s6,13.5,13.5,13.5,13.5-6,13.5-13.5-6-13.5-13.5-13.5Z"/>
  <path class="cls-1" d="M19.4,35.9V15.1h3.9v20.8h-3.9ZM22.1,25.7v-1.4h5.8v1.4h-5.8ZM23.1,24.7v-1.6h2.8c.9,0,1.6-.2,2.1-.6.5-.4.7-1,.7-1.8s-.2-1.2-.7-1.6-1.2-.5-2.2-.5h-2.6l-.4-3.6h3.1c2.2,0,3.9.4,5.1,1.3,1.2.9,1.8,2.2,1.8,3.8s-.5,2.5-1.4,3.3-2.2,1.1-3.9,1.1h-4.3ZM23.1,35.9v-3.6h3.7c1.1,0,1.9-.2,2.5-.7s.9-1.2.9-2.1-.3-1.6-.9-2.1-1.5-.7-2.6-.7h-3.4l-.4-1.6h5.7c1.8,0,3.2.4,4.2,1.3,1,.9,1.5,2.1,1.5,3.7s-.6,3.2-1.7,4.2c-1.1,1-2.8,1.5-4.8,1.5h-4.6Z"/>
</svg>