<?xml version="1.0" encoding="UTF-8"?>
<svg id="_图层_1" data-name=" 图层 1" xmlns="http://www.w3.org/2000/svg" version="1.1" viewBox="0 0 45 45.7">
  <defs>
    <style>
      .cls-1 {
        fill: #ba3e45;
        stroke-width: 0px;
      }
    </style>
  </defs>
  <path class="cls-1" d="M15.6,16.4h4.8c.8,0,1.6-.3,2.2-.9l3.1-3.2c.6-.6.9-1.4.8-2.2l-.2-2.4c0-.7-.4-1.4-1-1.9-.9-.8-2.4-1.8-4.3-1.8-3.1,0-4.3-.4-6.1,1S6.7,14,4.5,20.3s-2.5,7-2.5,8,.4,2.4,0,3.5-1,1-.4,2.3,10.9,7.6,20,7.7c9.1.1,18.5-1.9,20.6-4.7,2-2.8,1.2-11.9,1-14.3s-1.2-4.3-4.1-4.8-8.4.2-11.1,6.4,0,0,0,0c0,0-1.7-1.2-4.9-1s-6.7,3.5-6.7,3.5c0,0,.4-2.2,0-5s-.8-5.5-.8-5.5Z"/>
</svg>