<?xml version="1.0" encoding="UTF-8"?>
<svg id="_图层_1" data-name=" 图层 1" xmlns="http://www.w3.org/2000/svg" version="1.1" viewBox="0 0 45 45.7">
  <defs>
    <style>
      .cls-1 {
        opacity: .5;
      }

      .cls-2 {
        fill: #4e6691;
        stroke-width: 0px;
      }

      .cls-3 {
        fill: none;
        stroke: #4e6691;
        stroke-miterlimit: 10;
        stroke-width: 2px;
      }
    </style>
  </defs>
  <g>
    <path class="cls-2" d="M2.5,22.8V2h3.5v20.8h-3.5ZM5.6,16.7v-3.3h3.1c1.4,0,2.5-.4,3.2-1.1s1.1-1.8,1.1-3.2-.4-2.2-1.1-2.9-1.8-1-3.2-1h-3.1v-3.3h3.1c2.6,0,4.6.6,6,1.8s2.1,2.9,2.1,5.2-.7,4.4-2.1,5.7-3.4,2-6,2h-3.1Z"/>
    <path class="cls-2" d="M20.1,22.8V2h3.5v20.8h-3.5ZM22.4,12.6v-1.4h5.9v1.4h-5.9ZM23.4,11.7v-1.5h3.1c1,0,1.7-.2,2.3-.7.5-.4.8-1.1.8-1.9s-.3-1.4-.8-1.8c-.6-.4-1.4-.6-2.4-.6h-2.8l-.4-3.3h3.3c2.2,0,3.8.4,5,1.3,1.2.9,1.8,2.2,1.8,3.9s-.5,2.5-1.5,3.3c-1,.8-2.4,1.2-4.2,1.2h-4.1ZM23.4,22.8v-3.3h4c1.2,0,2-.3,2.7-.8s1-1.3,1-2.2-.3-1.7-1-2.3-1.6-.8-2.8-.8h-3.7l-.4-1.5h5.5c1.9,0,3.4.4,4.5,1.3,1,.9,1.6,2.1,1.6,3.8s-.6,3.2-1.7,4.2c-1.1,1-2.7,1.5-4.8,1.5h-4.8Z"/>
  </g>
  <g class="cls-1">
    <g class="cls-1">
      <path class="cls-2" d="M12.5,31.6v-8.5h-3.3v-2.7c1.5-.4,2.6-1.8,2.6-3.4s-1.6-3.6-3.6-3.6-3.6,1.6-3.6,3.6,1.1,3,2.6,3.4v2.7h-3.3v19.4h2v-17.4h4.5v6.5h-2.4v11h2v-9h2.9v9h2v-11h-2.4ZM6.7,17c0-.9.7-1.6,1.6-1.6s1.6.7,1.6,1.6-.7,1.6-1.6,1.6-1.6-.7-1.6-1.6Z"/>
    </g>
    <g class="cls-1">
      <path class="cls-2" d="M25.9,31.6v-8.5h-3.3v-2.7c1.5-.4,2.6-1.8,2.6-3.4s-1.6-3.6-3.6-3.6-3.6,1.6-3.6,3.6,1.1,3,2.6,3.4v2.7h-3.3v19.4h2v-17.4h4.5v6.5h-2.4v11h2v-9h2.9v9h2v-11h-2.4ZM20.1,17c0-.9.7-1.6,1.6-1.6s1.6.7,1.6,1.6-.7,1.6-1.6,1.6-1.6-.7-1.6-1.6Z"/>
    </g>
    <g class="cls-1">
      <path class="cls-2" d="M39.3,31.6v-8.5h-3.3v-2.7c1.5-.4,2.6-1.8,2.6-3.4s-1.6-3.6-3.6-3.6-3.6,1.6-3.6,3.6,1.1,3,2.6,3.4v2.7h-3.3v19.4h2v-17.4h4.5v6.5h-2.4v11h2v-9h2.9v9h2v-11h-2.4ZM33.5,17c0-.9.7-1.6,1.6-1.6s1.6.7,1.6,1.6-.7,1.6-1.6,1.6-1.6-.7-1.6-1.6Z"/>
    </g>
  </g>
  <g>
    <circle class="cls-3" cx="5.8" cy="34.2" r="1.9"/>
    <circle class="cls-3" cx="37.3" cy="31.8" r="1.9"/>
    <circle class="cls-3" cx="21.4" cy="29.9" r="1.9"/>
    <circle class="cls-3" cx="37.3" cy="38.1" r="1.9"/>
    <polyline class="cls-3" points="7.7 34.2 24.7 34.2 27.1 31.8 35.1 31.8"/>
    <polyline class="cls-3" points="6.9 35.8 9.2 38.1 34.9 38.1"/>
    <polyline class="cls-3" points="6.9 32.6 9.6 29.9 19.1 29.9"/>
  </g>
</svg>