<?xml version="1.0" encoding="UTF-8"?>
<svg id="_图层_1" data-name=" 图层 1" xmlns="http://www.w3.org/2000/svg" version="1.1" viewBox="0 0 45 45.7">
  <defs>
    <style>
      .cls-1 {
        fill: #b88184;
      }

      .cls-1, .cls-2 {
        stroke: #8995a8;
        stroke-miterlimit: 10;
        stroke-width: 2px;
      }

      .cls-3 {
        fill: #4e6691;
      }

      .cls-3, .cls-4, .cls-5 {
        stroke-width: 0px;
      }

      .cls-4 {
        fill: #d59193;
      }

      .cls-5 {
        fill: #b13e43;
      }

      .cls-2 {
        fill: #f0f0f0;
      }
    </style>
  </defs>
  <path class="cls-4" d="M3.5,6v33.2c0,1.4,1.1,2.6,2.6,2.6h32.5c1.4,0,2.5-1.1,2.5-2.5V13.1c0-1.4-1.1-2.5-2.5-2.5h-7l-6-6c-.6-.6-1.4-1-2.3-1H6c-1.4,0-2.5,1-2.5,2.4Z"/>
  <rect class="cls-5" x="3.5" y="10.6" width="37.6" height="31.2" rx="2.6" ry="2.6"/>
  <g>
    <g>
      <path class="cls-1" d="M29.3,20.4c-.1,0-.6,0-.6.7v4c0,.5-.4.9-.9.9h-3.5c-.5,0-.6.4-.6.5v-.8c0-.3.1-.5.3-.8l3.8-4.2c.2-.3.5-.4.9-.4h.7Z"/>
      <path class="cls-2" d="M41.8,21.7v20.2c0,.7-.5,1.3-1.3,1.3h-15.6c-.7,0-1.3-.5-1.3-1.3v-15.3c0-.2,0-.5.6-.5h3.5c.5,0,.9-.4.9-.9v-4c0-.7.4-.7.6-.7h11.3c.7,0,1.3.5,1.3,1.3h0Z"/>
    </g>
    <g>
      <circle class="cls-3" cx="26.7" cy="28.3" r=".5"/>
      <circle class="cls-3" cx="26.7" cy="30.6" r=".5"/>
      <circle class="cls-3" cx="26.7" cy="32.9" r=".5"/>
      <circle class="cls-3" cx="26.7" cy="35.2" r=".5"/>
      <rect class="cls-3" x="28.5" y="27.8" width="10.9" height="1.1"/>
      <rect class="cls-3" x="28.5" y="30" width="10.9" height="1.1"/>
      <rect class="cls-3" x="28.5" y="32.4" width="10.9" height="1.1"/>
      <rect class="cls-3" x="28.5" y="34.6" width="10.9" height="1.1"/>
    </g>
  </g>
</svg>