<?xml version="1.0" encoding="UTF-8"?>
<svg id="_图层_1" data-name=" 图层 1" xmlns="http://www.w3.org/2000/svg" version="1.1" viewBox="0 0 45 45.7">
  <defs>
    <style>
      .cls-1 {
        fill: none;
        stroke: #4e6691;
        stroke-miterlimit: 10;
      }

      .cls-2 {
        isolation: isolate;
      }

      .cls-3 {
        fill: #d59193;
      }

      .cls-3, .cls-4, .cls-5 {
        stroke-width: 0px;
      }

      .cls-4 {
        fill: #b13e43;
      }

      .cls-5 {
        fill: #fff;
      }
    </style>
  </defs>
  <path class="cls-3" d="M3.5,6v33.2c0,1.4,1.1,2.6,2.6,2.6h32.5c1.4,0,2.5-1.1,2.5-2.5V13.1c0-1.4-1.1-2.5-2.5-2.5h-7l-6-6c-.6-.6-1.4-1-2.3-1H6c-1.4,0-2.5,1-2.5,2.4Z"/>
  <rect class="cls-4" x="3.5" y="10.6" width="37.6" height="31.2" rx="2.6" ry="2.6"/>
  <g class="cls-2">
    <g class="cls-2">
      <path class="cls-5" d="M20.4,43.6v-23.8h4.7l9.8,15.9v-15.9h4.5v23.8h-4.8l-9.6-15.5v15.5h-4.5Z"/>
    </g>
    <g class="cls-2">
      <path class="cls-1" d="M20.4,43.6v-23.8h4.7l9.8,15.9v-15.9h4.5v23.8h-4.8l-9.6-15.5v15.5h-4.5Z"/>
    </g>
  </g>
</svg>