<?xml version="1.0" encoding="UTF-8"?>
<svg id="_图层_1" data-name=" 图层 1" xmlns="http://www.w3.org/2000/svg" version="1.1" viewBox="0 0 45 45.7">
  <defs>
    <style>
      .cls-1 {
        font-family: Arial-BoldMT, Arial;
        font-size: 11.8px;
        font-weight: 700;
      }

      .cls-1, .cls-2 {
        fill: #fff;
      }

      .cls-3 {
        fill: #1f7244;
      }

      .cls-3, .cls-4, .cls-5 {
        stroke-width: 0px;
      }

      .cls-4 {
        fill: #d59193;
      }

      .cls-5 {
        fill: #b13e43;
      }

      .cls-2 {
        stroke: #1f7244;
        stroke-miterlimit: 10;
        stroke-width: 2px;
      }
    </style>
  </defs>
  <path class="cls-4" d="M3.5,6v33.2c0,1.4,1.1,2.6,2.6,2.6h32.5c1.4,0,2.5-1.1,2.5-2.5V13.1c0-1.4-1.1-2.5-2.5-2.5h-7l-6-6c-.6-.6-1.4-1-2.3-1H6c-1.4,0-2.5,1-2.5,2.4Z"/>
  <rect class="cls-5" x="3.5" y="10.6" width="37.6" height="31.2" rx="2.6" ry="2.6"/>
  <g>
    <rect class="cls-2" x="24.8" y="24.5" width="16.8" height="16.4" rx="2.2" ry="2.2"/>
    <polygon class="cls-3" points="33.4 44.6 19.2 42 19.2 23.5 33.4 20.9 33.4 44.6"/>
    <text class="cls-1" transform="translate(22.2 37)"><tspan x="0" y="0">X</tspan></text>
  </g>
</svg>