<?xml version="1.0" encoding="UTF-8"?>
<svg id="_图层_1" data-name=" 图层 1" xmlns="http://www.w3.org/2000/svg" version="1.1" viewBox="0 0 45 45.7">
  <defs>
    <style>
      .cls-1 {
        fill: #4e6691;
        stroke-width: 0px;
      }
    </style>
  </defs>
  <path class="cls-1" d="M22.2,3.1v4.7s-12.8.6-12.8,3.7,7.9,7.7,7.9,7.7c0,0-11.3-4.7-11.3-8S12.9,3.1,22.2,3.1Z"/>
  <path class="cls-1" d="M22.8,42.6v-4.7s12.8-.6,12.8-3.7-7.9-7.7-7.9-7.7c0,0,11.3,4.7,11.3,8s-6.9,8-16.2,8Z"/>
  <path class="cls-1" d="M37.9,17.1c0,4.2-12.2,6.9-15.7,7.1h0c-.2,0-.3,0-.5,0-3.6.2-12.2,1.3-12.2,4.4,0,1.8,5.8,6,6.2,6.3-.6-.2-9.7-3.8-9.7-7.9s12.2-6.9,15.7-7.1h0c.2,0,.3,0,.5,0,3.5-.3,12.3-1.3,12.2-4.5,0-1.8-5.8-6-6.2-6.3.6.2,9.7,3.8,9.7,7.9Z"/>
</svg>